<?xml version="1.0" encoding="utf-8"?>
<!-- Generator: Adobe Illustrator 16.0.0, SVG Export Plug-In . SVG Version: 6.00 Build 0)  -->
<!DOCTYPE svg PUBLIC "-//W3C//DTD SVG 1.1//EN" "http://www.w3.org/Graphics/SVG/1.1/DTD/svg11.dtd">
<svg version="1.1" id="Layer_1" xmlns="http://www.w3.org/2000/svg" xmlns:xlink="http://www.w3.org/1999/xlink" x="0px" y="0px"
	 width="288px" height="144px" viewBox="0 0 288 144" enable-background="new 0 0 288 144" xml:space="preserve">
<g>
	<path d="M45.048,4.289H24.197v18.849H35.12v76.269c0,5.432,4.403,9.834,9.835,9.834h27.234V90.392H54.888l-0.006-76.27
		C54.882,8.691,50.479,4.289,45.048,4.289z"/>
	<path d="M157.012,99.675c7.247-7.695,10.873-17.261,10.873-28.697c0-11.859-3.508-21.577-10.52-29.154
		c-7.014-7.577-15.531-11.366-25.555-11.366c-4.613,0-8.943,0.872-12.99,2.611c-4.048,1.741-7.813,4.354-11.295,7.836v-8.472H88.395
		v108.783h19.131v-40.095c3.765,3.578,7.555,6.154,11.365,7.732c3.813,1.575,7.93,2.363,12.355,2.363
		C141.176,111.217,149.764,107.37,157.012,99.675z M112.68,87.25c-4.002-4.212-6.002-9.729-6.002-16.555
		c0-6.681,2-12.095,6.002-16.235c4-4.141,9.035-6.213,15.105-6.213c6.023,0,11.014,2.105,14.967,6.317
		c3.954,4.213,5.932,9.613,5.932,16.202c0,6.637-2.014,12.095-6.037,16.378c-4.025,4.283-8.979,6.424-14.861,6.424
		C121.715,93.568,116.68,91.463,112.68,87.25z"/>
	<path d="M35.12,140.596h37.069v-18.613H46.477c-6.271,0-11.356,5.084-11.356,11.355V140.596z"/>
	<path d="M128.139,140.596h122.707c7.155,0,12.957-5.801,12.957-12.957v-5.656H128.139V140.596z"/>
	<path d="M243.648,109.24c-5.896,0-10.676-4.779-10.676-10.675V75.566c0-8.895-0.424-14.919-1.27-18.072
		c-0.85-3.152-2.296-5.506-4.343-7.059c-2.048-1.554-4.578-2.33-7.591-2.33c-3.906,0-7.258,1.295-10.058,3.883
		c-2.802,2.589-4.743,6.118-5.824,10.589c-0.565,2.307-0.849,7.578-0.849,15.813v30.85h-19.131V21.632h-11.553V2.784h11.553l0,0
		h9.297c5.432,0,9.834,4.402,9.834,9.834v27.581c3.766-3.248,7.555-5.684,11.366-7.308c3.813-1.623,7.673-2.435,11.578-2.435
		c7.624,0,14.049,2.637,19.272,7.906c4.47,4.565,6.705,11.272,6.705,20.119v31.909h11.842v18.849h-11.842H243.648z"/>
</g>
</svg>
