<?xml version="1.0" encoding="utf-8"?>
<!-- Generator: Adobe Illustrator 22.0.1, SVG Export Plug-In . SVG Version: 6.00 Build 0)  -->
<svg version="1.1" id="Layer_1" xmlns="http://www.w3.org/2000/svg" xmlns:xlink="http://www.w3.org/1999/xlink" x="0px" y="0px"
	 viewBox="0 0 288 144" style="enable-background:new 0 0 288 144;" xml:space="preserve">
<style type="text/css">
	.st0{fill:#F3F3F3;}
</style>
<g>
	<path class="st0" d="M45,4.3H24.2v18.8h10.9v76.3c0,5.4,4.4,9.8,9.8,9.8h27.2V90.4H54.9l0-76.3C54.9,8.7,50.5,4.3,45,4.3z"/>
	<path class="st0" d="M157,99.7c7.2-7.7,10.9-17.3,10.9-28.7c0-11.9-3.5-21.6-10.5-29.2c-7-7.6-15.5-11.4-25.6-11.4
		c-4.6,0-8.9,0.9-13,2.6c-4,1.7-7.8,4.4-11.3,7.8v-8.5H88.4v108.8h19.1v-40.1c3.8,3.6,7.6,6.2,11.4,7.7c3.8,1.6,7.9,2.4,12.4,2.4
		C141.2,111.2,149.8,107.4,157,99.7z M112.7,87.3c-4-4.2-6-9.7-6-16.6c0-6.7,2-12.1,6-16.2c4-4.1,9-6.2,15.1-6.2c6,0,11,2.1,15,6.3
		c4,4.2,5.9,9.6,5.9,16.2c0,6.6-2,12.1-6,16.4c-4,4.3-9,6.4-14.9,6.4C121.7,93.6,116.7,91.5,112.7,87.3z"/>
	<path class="st0" d="M35.1,140.6h37.1V122H46.5c-6.3,0-11.4,5.1-11.4,11.4L35.1,140.6L35.1,140.6z"/>
	<path class="st0" d="M128.1,140.6h122.7c7.2,0,13-5.8,13-13V122H128.1V140.6z"/>
	<path class="st0" d="M243.6,109.2c-5.9,0-10.7-4.8-10.7-10.7v-23c0-8.9-0.4-14.9-1.3-18.1c-0.9-3.2-2.3-5.5-4.3-7.1
		c-2-1.6-4.6-2.3-7.6-2.3c-3.9,0-7.3,1.3-10.1,3.9c-2.8,2.6-4.7,6.1-5.8,10.6c-0.6,2.3-0.8,7.6-0.8,15.8v30.8h-19.1V21.6h-11.6V2.8
		h11.6l0,0h9.3c5.4,0,9.8,4.4,9.8,9.8v27.6c3.8-3.2,7.6-5.7,11.4-7.3c3.8-1.6,7.7-2.4,11.6-2.4c7.6,0,14,2.6,19.3,7.9
		c4.5,4.6,6.7,11.3,6.7,20.1v31.9h11.8v18.8H252L243.6,109.2L243.6,109.2z"/>
</g>
</svg>
